<svg xmlns="http://www.w3.org/2000/svg" viewBox="358.45 21.5 749.22 156.51"><path class="cls-3" d="M384.13,81.79c0,6.23,2.07,8.52,10.49,8.52v4.92h-36.15v-4.92c9.5,0,10.37-3.06,10.37-8.52v-45.44c0-5.24-.54-8.52-10.37-8.52v-4.92h36.15v4.92c-9.51,0-10.49,2.84-10.49,8.52v21.73l22.5-19.66c2.52-2.19,4.47-4.15,4.47-6.77,0-2.95-3.6-3.83-7.31-3.83v-4.92h32.99v4.92c-10.05.87-11.47,2.29-24.58,13.65l-7.53,6.56,21.29,30.36c6.44,9.18,8.96,11.58,16.93,11.9v4.92h-40.19v-4.92h3.28c5.68,0,7.2-.65,7.2-2.29s-1.85-4.48-4.36-7.97l-15.51-21.95-9.17,8.09v15.62Z"/><path class="cls-3" d="M461.45,28.81c-6.55,0-14.74,0-15.4,14.64h-5.03v-20.53h71.43v20.53h-5.03c-1.42-14.64-9.28-14.64-13.87-14.64h-9.18v52.97c0,5.35.66,8.52,10.48,8.52v4.92h-36.26v-4.92c9.5,0,10.48-2.84,10.48-8.52V28.81h-7.65Z"/><path class="cls-3" d="M556.69,90.2c22.17,0,22.93-23.92,22.93-31.35,0-14.74-4.37-30.91-23.05-30.91-19.77,0-23.15,17.15-23.15,30.91,0,7.97.66,31.35,23.27,31.35M556.14,21.61c32.66,0,40.74,24.36,40.74,37.46,0,19.22-13.87,37.47-40.31,37.47-28.72,0-40.41-20.54-40.41-37.58,0-18.68,13.1-37.35,39.97-37.35"/><path class="cls-3" d="M657.49,81.79c0,6.23,2.07,8.52,10.49,8.52v4.92h-36.15v-4.92c9.5,0,10.37-3.06,10.37-8.52v-45.44c0-5.24-.54-8.52-10.37-8.52v-4.92h36.15v4.92c-9.5,0-10.49,2.84-10.49,8.52v21.73l22.5-19.66c2.52-2.19,4.48-4.15,4.48-6.77,0-2.95-3.6-3.83-7.32-3.83v-4.92h32.99v4.92c-10.05.87-11.47,2.29-24.58,13.65l-7.53,6.56,21.3,30.36c6.45,9.18,8.96,11.58,16.93,11.9v4.92h-40.19v-4.92h3.28c5.67,0,7.21-.65,7.21-2.29s-1.86-4.48-4.37-7.97l-15.51-21.95-9.17,8.09v15.62Z"/><path class="cls-3" d="M730.01,69.78h19.44l-9.94-25.23-9.5,25.23ZM726.19,79.72c-.76,1.96-1.53,4.04-1.53,5.68,0,4.91,5.79,4.91,8.3,4.91v4.92h-24.9v-4.92c5.68,0,8.63-2.4,13.1-14.2l20.86-54.61h5.03l22.07,56.36c3.6,9.17,4.8,12.45,12.12,12.45v4.92h-34.08v-4.92c4.48,0,8.3,0,8.3-3.49,0-.66-.11-1.86-.66-3.28l-3.39-8.52h-23.48l-1.75,4.7Z"/><path class="cls-3" d="M804.17,57h3.38c6.78,0,19.01-.11,19.01-14.85s-13.43-14.42-22.39-14.2v29.05ZM804.17,81.79c0,5.35.77,8.52,10.59,8.52v4.92h-36.26v-4.92c9.39,0,10.37-2.84,10.37-8.52v-45.65c0-5.46-.76-8.52-10.37-8.52v-5.03l16.71-.54c2.73,0,8.41-.33,14.53-.11,6.22.22,12.89.65,17.47,1.86,7.54,1.96,15.73,7.64,15.73,18.45,0,7.1-4.15,14.2-15.83,17.37,5.57,3.27,7.97,7.1,15.18,18.13,6.77,10.38,8.85,12.12,14.2,12.56v4.92h-19.33c-2.84-3.27-6.01-8.52-9.17-13.65l-4.92-8.08c-6.12-10.05-6.56-10.6-16.17-10.6h-2.73v18.9Z"/><path class="cls-3" d="M869.59,69.78h19.43l-9.94-25.23-9.5,25.23ZM865.77,79.72c-.77,1.96-1.53,4.04-1.53,5.68,0,4.91,5.79,4.91,8.3,4.91v4.92h-24.9v-4.92c5.68,0,8.63-2.4,13.1-14.2l20.86-54.61h5.03l22.06,56.36c3.6,9.17,4.8,12.45,12.12,12.45v4.92h-34.08v-4.92c4.47,0,8.3,0,8.3-3.49,0-.66-.11-1.86-.66-3.28l-3.39-8.52h-23.48l-1.75,4.7Z"/><path class="cls-3" d="M932.06,28.81c-6.55,0-14.74,0-15.4,14.64h-5.03v-20.53h71.43v20.53h-5.03c-1.42-14.64-9.29-14.64-13.87-14.64h-9.17v52.97c0,5.35.66,8.52,10.48,8.52v4.92h-36.26v-4.92c9.5,0,10.48-2.84,10.48-8.52V28.81h-7.65Z"/><path class="cls-3" d="M994.75,69.78h19.44l-9.94-25.23-9.5,25.23ZM990.92,79.72c-.77,1.96-1.53,4.04-1.53,5.68,0,4.91,5.79,4.91,8.3,4.91v4.92h-24.9v-4.92c5.68,0,8.63-2.4,13.1-14.2l20.86-54.61h5.02l22.06,56.36c3.6,9.17,4.81,12.45,12.13,12.45v4.92h-34.08v-4.92c4.48,0,8.3,0,8.3-3.49,0-.66-.11-1.86-.66-3.28l-3.39-8.52h-23.48l-1.75,4.7Z"/><path class="cls-3" d="M1044.55,35.37c-.44-.55-.66-1.09-.76-1.2-3.28-5.24-5.03-6.12-9.61-6.33v-4.92h33.85v4.92c-3.93,0-7.43,0-7.43,3.17,0,1.42.55,2.73,3.6,7.86l11.25,19,10.71-16.93c2.18-3.5,3.49-5.79,3.49-8.08,0-5.03-4.59-5.03-8.3-5.03v-4.92h26.32v4.92c-6,.44-7.64,2.73-14.53,13.32l-15.18,23.49v17.15c0,4.91.44,8.52,10.49,8.52v4.92h-36.37v-4.92c9.5,0,10.59-2.73,10.59-8.52v-16.16l-18.13-30.25Z"/><path class="cls-3" d="M358.46,128.94h24.31v3.28c-6.4,0-7.06,1.89-7.06,5.68v20.09c0,4.44.37,7.2,1.24,9.47,1.6,3.93,5.9,6.33,10.48,6.33,4.96,0,9.76-2.69,11.43-6.55,1.45-3.43,1.6-6.77,1.6-10.56v-17.33c0-5.02-.07-7.13-7.14-7.13v-3.28h17.76v3.28c-6.7,0-6.7,2.4-6.7,7.13v17.76c0,5.53,0,8.66-2.11,12.38-4.15,7.5-12.96,8.51-16.89,8.51-5.75,0-14.63-2.04-17.91-8.95-1.96-4.07-1.96-7.06-1.96-11.07l-.07-20.09c0-3.64-.51-5.68-6.99-5.68v-3.28Z"/><path class="cls-3" d="M455.08,166.65c0,5.02.15,7.2,7.21,7.2v3.28h-17.91v-3.28c6.84,0,6.77-2.33,6.77-7.2v-24.61c0-6.4-.15-9.1-6.7-9.83v-3.28h14.05l27.45,32.39v-21.99c0-4.66-.22-7.13-6.92-7.13v-3.28h17.98v3.28c-7.06,0-7.13,1.97-7.13,7.13v38.22h-3.27l-31.52-37.49v26.57Z"/><path class="cls-3" d="M530.15,128.94h24.46v3.28c-6.41,0-7.13,1.82-7.13,5.68v30.29c0,3.64.58,5.67,7.13,5.67v3.28h-24.46v-3.28c6.41,0,7.14-1.82,7.14-5.67v-30.29c0-3.72-.59-5.68-7.14-5.68v-3.28Z"/><path class="cls-3" d="M596.55,139.57c-2.62-6.19-3.21-7.36-8.88-7.36v-3.27h24.53v3.27c-3.93.15-6.19.22-6.19,2.7,0,.95.37,2.33.87,3.42l11.07,25.77,10.26-24.1c.95-2.26,1.31-3.13,1.31-4.29,0-3.42-3.42-3.42-6.4-3.5v-3.27h17.83v3.27c-4.81.22-5.61,1.39-8.96,9.17l-15.73,36.62h-3.27l-16.45-38.44Z"/><path class="cls-3" d="M717.27,177.14h-42.96v-3.28c6.41,0,6.99-1.96,6.99-5.67v-30.29c0-3.49-.36-5.68-6.99-5.68v-3.28h39.97l.66,12.52h-3.28c-2.18-8.52-5.31-8.59-11.14-8.59h-9.03v17.04h4.88c4.87,0,5.9-.87,6.19-6.05h3.42v16.02h-3.28c-.29-5.31-1.6-6.04-6.26-6.04h-4.95v11.36c0,6.26,0,8.01,6.91,8.01h3.86c2.98,0,10.26,0,12.01-11.94h3.36l-.37,15.87Z"/><path class="cls-3" d="M769.91,151.65h2.26c4.51,0,12.67-.07,12.67-9.9s-8.96-9.61-14.93-9.46v19.36ZM769.91,168.18c0,3.57.51,5.67,7.06,5.67v3.27h-24.17v-3.27c6.26,0,6.92-1.89,6.92-5.67v-30.43c0-3.64-.51-5.68-6.92-5.68v-3.35l11.14-.36c1.82,0,5.6-.22,9.68-.07,4.15.15,8.59.44,11.65,1.24,5.03,1.31,10.48,5.1,10.48,12.3,0,4.73-2.77,9.47-10.55,11.58,3.71,2.19,5.31,4.73,10.12,12.09,4.51,6.91,5.9,8.08,9.46,8.37v3.27h-12.89c-1.89-2.18-4-5.68-6.11-9.1l-3.28-5.38c-4.08-6.7-4.37-7.06-10.78-7.06h-1.82v12.6Z"/><path class="cls-3" d="M839.6,159.74h3.27c1.38,5.53,4.87,14.34,13.9,14.34,4.95,0,8.01-3.13,8.01-6.99,0-4.59-3.71-6.41-11.21-9.9-12.16-5.68-13.98-11.36-13.98-15.58,0-6.19,5.17-13.54,14.63-13.54,4.59,0,8.88,2.33,11.72,5.67.37-.87.73-2.11,1.17-4.22h3.35v13.47h-3.35c-.73-2.33-3.5-10.99-12.37-10.99-4.3,0-7.06,2.47-7.06,6.04,0,4.51,4.07,6.33,10.77,9.46,7.93,3.71,15.5,7.35,15.5,15.8,0,5.46-4.73,14.71-15.57,14.71-4.8,0-10.34-1.97-14.05-6.63-.37.8-1.09,2.33-1.46,4.88h-3.27v-16.53Z"/><path class="cls-3" d="M909.06,128.94h24.46v3.28c-6.41,0-7.13,1.82-7.13,5.68v30.29c0,3.64.58,5.67,7.13,5.67v3.28h-24.46v-3.28c6.4,0,7.13-1.82,7.13-5.67v-30.29c0-3.72-.59-5.68-7.13-5.68v-3.28Z"/><path class="cls-3" d="M981.14,132.87c-4.37,0-9.83,0-10.27,9.76h-3.35v-13.69h47.61v13.69h-3.35c-.95-9.76-6.19-9.76-9.25-9.76h-6.12v35.31c0,3.57.44,5.68,6.99,5.68v3.28h-24.17v-3.28c6.33,0,6.99-1.89,6.99-5.68v-35.31h-5.09Z"/><path class="cls-3" d="M1056.27,137.24c-.29-.37-.43-.73-.51-.8-2.18-3.5-3.35-4.08-6.41-4.22v-3.28h22.57v3.28c-2.62,0-4.95,0-4.95,2.11,0,.95.37,1.82,2.4,5.24l7.5,12.67,7.13-11.28c1.46-2.33,2.33-3.86,2.33-5.39,0-3.35-3.06-3.35-5.53-3.35v-3.28h17.54v3.28c-4,.29-5.1,1.82-9.68,8.88l-10.12,15.65v11.43c0,3.27.29,5.68,6.99,5.68v3.28h-24.24v-3.28c6.33,0,7.06-1.82,7.06-5.68v-10.77l-12.09-20.17Z"/></svg>
